<?xml version="1.0" encoding="UTF-8"?>
<svg id="Capa_1" xmlns="http://www.w3.org/2000/svg" version="1.1" viewBox="0 0 177.12 160.8">
  <!-- Generator: Adobe Illustrator 29.5.0, SVG Export Plug-In . SVG Version: 2.1.0 Build 137)  -->
  <defs>
    <style>
      .st0 {
        fill: #636f37;
      }

      .st1 {
        fill: #ba6c1f;
      }
    </style>
  </defs>
  <path class="st0" d="M162.01,25.61l-58.83,56.69c-.14.13-.16.25-.15.27l38.12,56.37c.76,1.13.79,2.59.09,3.91-.81,1.51-2.39,2.49-4.04,2.49h-36.36c-2.45,0-4.6-1.08-5.89-2.97l-21.58-31.92-15.67,15c-.6.57,9.27-55.58,9.27-55.58h0s.04-.02.06-.04l49.83-48.02c1.82-1.77,4.23-2.78,6.61-2.78h36.36c3.43,0,4.8,4.01,2.18,6.59h0Z"/>
  <g>
    <path class="st1" d="M49.54,137.64c.51-2.58-1.08-4.13-3.03-3.37-4.75,1.86-9.46,3.83-14.16,5.79-1.48.62-2.1,1.62-1.14,3.19.91,1.5,1.88,1.6,3.51.85,4.33-1.99,8.78-3.69,13.18-5.53.68-.28,1.29-.72,1.65-.93h-.01Z"/>
    <path class="st1" d="M31.96,148.63c-.31-.78-.38-1.37-.71-1.74-3.62-4.16-7.26-8.31-10.95-12.41-.92-1.02-1.85-.42-2.61.37-.77.79-1.61,1.6-.59,2.76.63.71,1.34,1.33,1.96,2.05,2.78,3.2,5.52,6.44,8.34,9.6.47.52,1.37,1.17,1.88,1.03.95-.26,1.75-1.05,2.67-1.66h0Z"/>
    <path class="st1" d="M59.25,86.5c.51-2.58-1.08-4.13-3.03-3.37-4.75,1.86-9.46,3.83-14.16,5.79-1.48.62-2.1,1.62-1.14,3.19.91,1.5,1.88,1.6,3.51.85,4.33-1.99,8.78-3.69,13.18-5.53.68-.28,1.29-.72,1.65-.93h-.01Z"/>
    <path class="st1" d="M41.67,97.5c-.31-.78-.38-1.37-.71-1.74-3.62-4.16-7.26-8.31-10.95-12.41-.92-1.02-1.85-.42-2.61.37-.77.79-1.61,1.6-.59,2.76.63.71,1.34,1.33,1.96,2.05,2.78,3.2,5.52,6.44,8.34,9.6.47.52,1.37,1.17,1.88,1.03.95-.26,1.75-1.05,2.67-1.66h0Z"/>
    <path class="st1" d="M39.95,106.29c.72-.25,1.16-.39,1.58-.56,4.47-1.87,8.91-3.81,13.41-5.58,1.52-.6,2.54-1.15,1.94-3.03-.63-1.98-1.87-1.98-3.48-1.31-4.65,1.96-9.34,3.83-13.95,5.87-.61.27-1.31,1.43-1.18,2,.21.94,1.07,1.73,1.67,2.61h.01Z"/>
    <path class="st1" d="M23.8,107.55c-.76.65-1.75,1.18-2.23,2.01-.29.52-.05,1.71.39,2.22,2.84,3.25,5.81,6.39,8.71,9.58.41.45.77.96,1.04,1.49.8,1.57,1.87,1.72,3.31.82,1.4-.89,1.63-1.98.58-3.19-3.53-4.07-7.12-8.09-10.69-12.12-.22-.24-.53-.39-1.11-.81h0Z"/>
    <path class="st1" d="M31.4,137.22c.98-.53,2.02-.84,2.63-1.53.38-.42.42-1.7.07-2.12-3.58-4.26-7.22-8.47-10.96-12.59-1.03-1.13-2.09-.26-2.93.61-.88.9-1.09,1.81-.08,2.79,1.74,1.69,3.55,3.31,5.14,5.13,1.73,1.96,3.25,4.11,4.86,6.18.36.46.74.9,1.27,1.54h0Z"/>
    <path class="st1" d="M52.34,124.12c.47-2.52-1.1-4.09-2.98-3.36-4.77,1.84-9.49,3.81-14.2,5.78-1.43.6-2.17,1.52-1.15,3.16.93,1.51,1.8,1.64,3.47.86,4.26-1.99,8.69-3.63,13.03-5.44.74-.31,1.41-.77,1.83-1Z"/>
    <path class="st1" d="M54.63,111.57c.5-2.52-1.14-4.08-3.07-3.32-4.75,1.88-9.48,3.84-14.19,5.83-1.49.63-2.04,1.65-1.01,3.2.93,1.4,1.85,1.46,3.4.76,4.35-1.97,8.82-3.67,13.23-5.51.68-.28,1.29-.74,1.65-.95h-.01Z"/>
    <path class="st1" d="M39.31,110.53c-.34-.77-.46-1.4-.82-1.82-3.52-4.08-7.05-8.14-10.64-12.15-1.11-1.24-2.17-.56-3.11.41-.96.99-1,1.87,0,2.97,3.46,3.86,6.82,7.81,10.28,11.66.36.41,1.25.74,1.7.58.89-.32,1.65-1.01,2.59-1.64h0Z"/>
    <path class="st1" d="M64.35,60.38c.51-2.58-1.08-4.13-3.03-3.37-4.75,1.86-9.46,3.83-14.16,5.79-1.48.62-2.1,1.62-1.14,3.19.91,1.5,1.88,1.6,3.51.85,4.33-1.99,8.78-3.69,13.18-5.53.68-.28,1.29-.72,1.65-.93h-.01Z"/>
    <path class="st1" d="M46.78,71.37c-.31-.78-.38-1.37-.71-1.74-3.62-4.16-7.26-8.31-10.95-12.41-.92-1.02-1.85-.42-2.61.37-.77.79-1.61,1.6-.59,2.76.63.71,1.34,1.33,1.96,2.05,2.78,3.2,5.52,6.44,8.34,9.6.47.52,1.37,1.17,1.88,1.03.95-.26,1.75-1.05,2.67-1.66h0Z"/>
    <path class="st1" d="M45.05,80.17c.72-.25,1.16-.39,1.58-.56,4.47-1.87,8.91-3.81,13.41-5.58,1.52-.6,2.54-1.15,1.94-3.03-.63-1.98-1.87-1.98-3.48-1.31-4.65,1.96-9.34,3.83-13.95,5.87-.61.27-1.31,1.43-1.18,2,.21.94,1.07,1.73,1.67,2.61h0Z"/>
    <path class="st1" d="M43.92,83.81c-.34-.77-.46-1.4-.82-1.82-3.52-4.08-7.05-8.14-10.64-12.15-1.11-1.24-2.17-.56-3.11.41-.96.99-1,1.87,0,2.97,3.46,3.86,6.82,7.81,10.28,11.66.36.41,1.25.74,1.7.58.89-.32,1.65-1.01,2.59-1.64h0Z"/>
    <path class="st1" d="M66.65,46.06c.51-2.58-1.08-4.13-3.03-3.37-4.75,1.86-9.46,3.83-14.16,5.79-1.48.62-2.1,1.62-1.14,3.19.91,1.5,1.88,1.6,3.51.85,4.33-1.99,8.78-3.69,13.18-5.53.68-.28,1.29-.72,1.65-.93h-.01Z"/>
    <path class="st1" d="M49.66,57.16c-.31-.78-.38-1.37-.71-1.74-3.62-4.16-7.26-8.31-10.95-12.41-.92-1.02-1.85-.42-2.61.37-.77.79-1.61,1.6-.59,2.76.63.71,1.34,1.33,1.96,2.05,2.78,3.2,5.52,6.44,8.34,9.6.47.52,1.37,1.17,1.88,1.03.95-.26,1.75-1.05,2.67-1.66h.01Z"/>
    <path class="st1" d="M71.76,19.93c.51-2.58-1.08-4.13-3.03-3.37-4.75,1.86-9.46,3.83-14.16,5.79-1.48.62-2.1,1.62-1.14,3.19.91,1.5,1.88,1.6,3.51.85,4.33-1.99,8.78-3.69,13.18-5.53.68-.28,1.29-.72,1.65-.93h-.01Z"/>
    <path class="st1" d="M54.76,31.03c-.31-.78-.38-1.37-.71-1.74-3.62-4.16-7.26-8.31-10.95-12.41-.92-1.02-1.85-.42-2.61.37-.77.79-1.61,1.6-.59,2.76.63.71,1.34,1.33,1.96,2.05,2.78,3.2,5.52,6.44,8.34,9.6.47.52,1.37,1.17,1.88,1.03.95-.26,1.75-1.05,2.67-1.66h.01Z"/>
    <path class="st1" d="M52.45,39.72c.72-.25,1.16-.39,1.58-.56,4.47-1.87,8.91-3.81,13.41-5.58,1.52-.6,2.54-1.15,1.94-3.03-.63-1.98-1.87-1.98-3.48-1.31-4.65,1.96-9.34,3.83-13.95,5.87-.61.27-1.31,1.43-1.18,2,.21.94,1.07,1.73,1.67,2.61h.01Z"/>
    <path class="st1" d="M51.91,43.48c-.34-.77-.46-1.4-.82-1.82-3.52-4.08-7.05-8.14-10.64-12.15-1.11-1.24-2.17-.56-3.11.41-.96.99-1,1.87,0,2.97,3.46,3.86,6.82,7.81,10.28,11.66.36.41,1.25.74,1.7.58.89-.32,1.65-1.01,2.59-1.64h0Z"/>
  </g>
</svg>